<svg id="image" xmlns="http://www.w3.org/2000/svg" viewBox="0 0 44.18 44.18">
<!--<path d="M10.625,5.09L0,22.09l10.625,17H44.18v-34H10.625z M42.18,37.09H11.734l-9.375-15l9.375-15H42.18V37.09z"/>
	<polygon points="18.887,30.797 26.18,23.504 33.473,30.797 34.887,29.383 27.594,22.09 34.887,14.797 33.473,13.383 26.18,20.676    18.887,13.383 17.473,14.797 24.766,22.09 17.473,29.383"/>
	
	<path d="M490.667,64H133.077c-7.196,0-13.906,3.627-17.848,9.647L3.485,244.314c-4.647,7.098-4.647,16.274,0,23.372     l111.744,170.667c3.942,6.02,10.652,9.647,17.848,9.647h357.589c11.782,0,21.333-9.551,21.333-21.333V85.333     C512,73.551,502.449,64,490.667,64z M469.333,405.333H144.609L46.833,256l97.776-149.333h324.725V405.333z"/>
	<path d="M198.246,356.418c8.331,8.331,21.839,8.331,30.17,0l70.248-70.248l70.248,70.248c8.331,8.331,21.839,8.331,30.17,0     s8.331-21.839,0-30.17L328.834,256l70.248-70.248c8.331-8.331,8.331-21.839,0-30.17s-21.839-8.331-30.17,0l-70.248,70.248     l-70.248-70.248c-8.331-8.331-21.839-8.331-30.17,0c-8.331,8.331-8.331,21.839,0,30.17L268.495,256l-70.248,70.248     C189.915,334.58,189.915,348.087,198.246,356.418z"/>
	-->
	<path d="M10.625,5.09L0,22.09l10.625,17H44.18v-34H10.625z M42.18,37.09H11.734l-9.375-15l9.375-15H42.18V37.09z"/>
	<polygon points="18.887,30.797 26.18,23.504 33.473,30.797 34.887,29.383 27.594,22.09 34.887,14.797 33.473,13.383 26.18,20.676    18.887,13.383 17.473,14.797 24.766,22.09 17.473,29.383  "/>
</svg>
